<?xml version="1.0" encoding="utf-8"?>
<!-- Generator: Adobe Illustrator 21.0.2, SVG Export Plug-In . SVG Version: 6.00 Build 0)  -->
<svg version="1.1" id="Calque_1" xmlns="http://www.w3.org/2000/svg" xmlns:xlink="http://www.w3.org/1999/xlink" x="0px" y="0px"
	 viewBox="0 0 100 125" style="enable-background:new 0 0 100 125;" xml:space="preserve">
<path d="M10.4,86.6c-0.4,2.1,0.1,4.2,1.4,5.8c1.3,1.6,3.3,2.6,5.4,2.6h65.6c2.1,0,4.1-0.9,5.4-2.6c1.3-1.6,1.8-3.8,1.4-5.8
	c-2-9.8-12.5-17.5-27.1-20.4V61C70,55.8,75,46.1,75,35C75,18.5,63.8,5,50,5S25,18.5,25,35c0,11.1,5,20.8,12.5,26v5.2
	C22.8,69.1,12.4,76.8,10.4,86.6z M35,35c0-11,6.7-20,15-20s15,9,15,20s-6.7,20-15,20S35,46,35,35z M43.1,75.4l4.4-0.5v-10
	c0.8,0.1,1.7,0.2,2.5,0.2s1.7-0.1,2.5-0.2v10l4.4,0.5c9.6,1.2,17.7,5,21.2,9.6H21.9C25.4,80.4,33.5,76.6,43.1,75.4z"/>
</svg>
