<?xml version="1.0" encoding="utf-8"?>
<!-- Generator: Adobe Illustrator 21.0.2, SVG Export Plug-In . SVG Version: 6.00 Build 0)  -->
<svg version="1.1" id="Calque_1" xmlns="http://www.w3.org/2000/svg" xmlns:xlink="http://www.w3.org/1999/xlink" x="0px" y="0px"
	 viewBox="0 0 100 125" style="enable-background:new 0 0 100 125;" xml:space="preserve">
<path d="M75,20c0-8.3-6.7-15-15-15c-3.8,0-7.3,1.5-10,3.9C47.3,6.5,43.8,5,40,5c-8.3,0-15,6.7-15,15c0,1.8,0.3,3.4,0.9,5H5v30h5v40
	h80V55h5V25H74.1C74.7,23.4,75,21.8,75,20z M85,45h-5H55V35h5h25V45z M35,20c0-2.8,2.2-5,5-5s5,2.2,5,5v5h-5C37.2,25,35,22.8,35,20z
	 M65,20c0,2.8-2.2,5-5,5h-5v-5c0-2.8,2.2-5,5-5S65,17.2,65,20z M40,35h5v10H20h-5V35H40z M20,55h25v30H20V55z M55,55h25v30H55V55z"
	/>
</svg>
