<?xml version="1.0" encoding="utf-8"?>
<!-- Generator: Adobe Illustrator 21.0.2, SVG Export Plug-In . SVG Version: 6.00 Build 0)  -->
<svg version="1.1" id="Calque_1" xmlns="http://www.w3.org/2000/svg" xmlns:xlink="http://www.w3.org/1999/xlink" x="0px" y="0px"
	 viewBox="0 0 100 125" style="enable-background:new 0 0 100 125;" xml:space="preserve">
<path d="M95,30H78.1l-10-20H31.9l-10,20H5v60h90V30z M85,80H15V40h13.1l10-20h23.8l10,20H85V80z"/>
<path d="M50,35c-11,0-20,9-20,20s9,20,20,20s20-9,20-20S61,35,50,35z M50,65c-5.5,0-10-4.5-10-10s4.5-10,10-10s10,4.5,10,10
	S55.5,65,50,65z"/>
</svg>
