<?xml version="1.0" encoding="utf-8"?>
<!-- Generator: Adobe Illustrator 21.0.2, SVG Export Plug-In . SVG Version: 6.00 Build 0)  -->
<svg version="1.1" id="Calque_1" xmlns="http://www.w3.org/2000/svg" xmlns:xlink="http://www.w3.org/1999/xlink" x="0px" y="0px"
	 viewBox="0 0 100 125" style="enable-background:new 0 0 100 125;" xml:space="preserve">
<path d="M50,5C36.2,5,25,16.2,25,30v5H15v60h70V35H75v-5C75,16.2,63.8,5,50,5z M35,30c0-8.3,6.7-15,15-15s15,6.7,15,15v5H35V30z
	 M75,85H25V45h50V85z"/>
<path d="M45,68.6V75c0,2.8,2.2,5,5,5s5-2.2,5-5v-6.4c3-1.7,5-4.9,5-8.6c0-5.5-4.5-10-10-10s-10,4.5-10,10C40,63.7,42,66.9,45,68.6z
	 M50,57.5c1.4,0,2.5,1.1,2.5,2.5s-1.1,2.5-2.5,2.5s-2.5-1.1-2.5-2.5S48.6,57.5,50,57.5z"/>
</svg>
