<?xml version="1.0" encoding="utf-8"?>
<!-- Generator: Adobe Illustrator 21.0.2, SVG Export Plug-In . SVG Version: 6.00 Build 0)  -->
<svg version="1.1" id="Calque_1" xmlns="http://www.w3.org/2000/svg" xmlns:xlink="http://www.w3.org/1999/xlink" x="0px" y="0px"
	 viewBox="0 0 100 125" style="enable-background:new 0 0 100 125;" xml:space="preserve">
<path d="M74.4,32.6l10.9-10.9l-7.1-7.1l-10.8,11c-3.6-2.6-7.8-4.4-12.4-5.1V5H45v15.4c-4.6,0.8-8.8,2.6-12.4,5.1L21.7,14.6l-7.1,7.1
	l10.9,10.9c-2.6,3.6-4.4,7.8-5.1,12.4H5v10h15.4c0.8,4.6,2.6,8.8,5.1,12.4L14.6,78.3l7.1,7.1l10.9-10.9c3.6,2.6,7.8,4.4,12.4,5.1V95
	h10V79.6c4.6-0.8,8.8-2.6,12.4-5.1l10.9,10.9l7.1-7.1l-11-10.9c2.6-3.6,4.4-7.8,5.1-12.4H95V45H79.6C78.8,40.4,77,36.2,74.4,32.6z
	 M50,70c-11,0-20-9-20-20s9-20,20-20s20,9,20,20S61,70,50,70z"/>
</svg>
