<?xml version="1.0" encoding="utf-8"?>
<!-- Generator: Adobe Illustrator 21.0.2, SVG Export Plug-In . SVG Version: 6.00 Build 0)  -->
<svg version="1.1" id="Calque_1" xmlns="http://www.w3.org/2000/svg" xmlns:xlink="http://www.w3.org/1999/xlink" x="0px" y="0px"
	 viewBox="0 0 100 125" style="enable-background:new 0 0 100 125;" xml:space="preserve">
<path d="M82.2,45.6C80.1,31.2,67.6,20,52.5,20c-10.8,0-20.7,5.8-26,15C14.6,35.5,5,45.4,5,57.5C5,69.9,15.1,80,27.5,80h50
	C87.1,80,95,72.1,95,62.5C95,54.5,89.6,47.7,82.2,45.6z M77.5,70h-50C20.6,70,15,64.4,15,57.5S20.6,45,27.5,45c0.4,0,0.9,0,1.5,0.1
	l3.7,0.4l1.5-3.4C37.3,34.8,44.5,30,52.5,30c11,0,20,9,20,20v5h5c4.1,0,7.5,3.4,7.5,7.5S81.6,70,77.5,70z"/>
</svg>
