<?xml version="1.0" encoding="utf-8"?>
<!-- Generator: Adobe Illustrator 21.0.2, SVG Export Plug-In . SVG Version: 6.00 Build 0)  -->
<svg version="1.1" id="Calque_1" xmlns="http://www.w3.org/2000/svg" xmlns:xlink="http://www.w3.org/1999/xlink" x="0px" y="0px"
	 viewBox="0 0 100 125" style="enable-background:new 0 0 100 125;" xml:space="preserve">
<path d="M50,20C25.6,20,6.7,46,5.9,47.1L3.8,50l2.1,2.9C6.7,54,25.6,80,50,80s43.3-26,44.1-27.1l2.1-2.9l-2.1-2.9
	C93.3,46,74.4,20,50,20z M50,70c-15,0-28.4-13.8-33.6-20c5.2-6.2,18.5-20,33.6-20c15,0,28.4,13.8,33.6,20C78.4,56.2,65.1,70,50,70z"
	/>
<path d="M50,35c-8.3,0-15,6.7-15,15s6.7,15,15,15s15-6.7,15-15S58.3,35,50,35z M50,55c-2.8,0-5-2.2-5-5s2.2-5,5-5s5,2.2,5,5
	S52.8,55,50,55z"/>
</svg>
